<svg width="128" height="128" viewBox="0 0 128 128" fill="none" xmlns="http://www.w3.org/2000/svg">
  <path fill-rule="evenodd" clip-rule="evenodd" d="M63.6796 9C64.1202 9 65.0005 9.01466 65.5962 9.04397C88.8286 10.0435 107.36 29.2296 107.36 52.7608C107.36 65.8987 98.3688 79.4255 86.1613 94.8654C84.9417 96.4083 82.602 96.4131 81.3805 94.8723L71.3597 82.2258C70.0572 80.5824 70.7708 78.1729 72.7372 77.4479C82.7609 73.7525 89.9117 64.1028 89.9117 52.7745C89.9117 37.6423 77.1563 25.4971 61.8341 26.5475C55.473 26.9843 49.7202 29.7416 45.4015 33.9636C40.7464 38.5149 37.7584 44.7682 37.4718 51.6508C37.195 58.3067 39.3933 64.438 43.2129 69.211L43.1973 69.2228L73.1934 107.079C74.0845 108.203 74.0737 109.794 73.17 110.907C71.9378 112.425 70.6929 113.963 69.4421 115.521C67.5264 117.91 65.642 119.052 63.7244 119L63.7088 119.003C63.7 119.003 63.6893 119.002 63.6796 119.002C63.6698 119.002 63.6601 119.003 63.6503 119.003L63.6357 119C61.7181 119.053 59.821 117.919 57.917 115.521C54.0439 110.647 50.4729 106.236 47.2015 102.196C28.9246 79.6224 20 68.5999 20 52.7608C20 29.2296 38.5305 10.0435 61.7629 9.04397C62.3596 9.01466 63.2389 9 63.6796 9ZM63.6063 41.1212C70.0269 41.1212 75.2308 46.3369 75.2308 52.772C75.2308 59.2061 70.0269 64.4228 63.6063 64.4228C57.1867 64.4228 51.9818 59.2061 51.9818 52.772C51.9818 46.3369 57.1867 41.1212 63.6063 41.1212Z" fill="#2BA8A6"/>
</svg>