<svg width="24" height="24" viewBox="0 0 24 24" fill="none" xmlns="http://www.w3.org/2000/svg">
  <path d="M7.03876 2C8.79408 2 10.2171 3.42297 10.2171 5.17829C10.2171 6.66848 9.19149 7.91913 7.80766 8.26295C9.28668 8.48959 10.6292 9.3726 11.4102 10.7332C11.6021 11.0673 11.4867 11.4938 11.1525 11.6856C10.8183 11.8774 10.3919 11.762 10.2001 11.4278C9.66028 10.4875 8.74954 9.86259 7.736 9.66487L7.73643 13.8605C7.73643 14.2458 7.42407 14.5581 7.03876 14.5581C6.68555 14.5581 6.39365 14.2957 6.34745 13.9551L6.34108 13.8605L6.34065 9.66548C6.26079 9.68112 6.18104 9.69951 6.10149 9.7207C4.56768 10.1293 3.48217 11.4802 3.40032 13.0508L3.39535 13.2403L3.39442 14.4028L4.55814 14.4031C4.88398 14.4031 5.16164 14.6276 5.23622 14.9363L5.25235 15.0313L5.80837 20.6037H8.2679L8.47209 18.5605C8.50721 18.209 8.7974 17.9447 9.14085 17.9326L9.23568 17.9356C9.58713 17.9708 9.85149 18.261 9.8636 18.6044L9.86052 18.6992L9.59344 21.3717C9.56103 21.6959 9.31005 21.9499 8.99538 21.9934L8.89922 22H5.17829C4.85245 22 4.5748 21.7755 4.50021 21.4668L4.48408 21.3717L3.92651 15.7981L2.69767 15.7984C2.34447 15.7984 2.05257 15.536 2.00637 15.1954L2 15.1008V13.24C2.00096 10.9571 3.53636 8.96003 5.74231 8.37238C5.91804 8.32556 6.09453 8.28863 6.27112 8.26129C4.88649 7.91969 3.86046 6.66881 3.86046 5.17829C3.86046 3.42297 5.28343 2 7.03876 2ZM17.8916 12.4457L18.0259 12.5557L21.7617 15.8243C22.0517 16.078 22.0811 16.5188 21.8274 16.8088C21.5967 17.0724 21.2115 17.1206 20.9255 16.9366L20.8429 16.8744L20.7591 16.8009L20.7597 20.0604C20.7597 21.0841 19.9658 21.9225 18.9601 21.9935L18.8217 21.9983L17.6074 21.9981L17.5814 22H15.1008C15.0916 22 15.0826 21.9998 15.0735 21.9995L13.8605 21.9983C12.8367 21.9983 11.9983 21.2045 11.9273 20.1988L11.9225 20.0604L11.9219 16.8019L11.8392 16.8744C11.5493 17.1281 11.1085 17.0987 10.8548 16.8088C10.6241 16.5451 10.6274 16.1569 10.8478 15.8979L10.9204 15.8243L14.6559 12.5559C15.5766 11.7493 16.9317 11.7127 17.8916 12.4457ZM15.6799 13.5239L15.5751 13.6058L13.3172 15.5814L13.3178 20.0604C13.3178 20.3301 13.5146 20.5538 13.7724 20.5959L13.8605 20.603L14.4028 20.6028L14.4031 18.8217C14.4031 17.7979 15.197 16.9595 16.2027 16.8886L16.3411 16.8837C17.4114 16.8837 18.2791 17.7514 18.2791 18.8217L18.2781 20.6028L18.8217 20.603C19.0914 20.603 19.3152 20.4062 19.3572 20.1484L19.3643 20.0604L19.3637 15.5805L17.1068 13.6055C16.7022 13.2511 16.1131 13.2238 15.6799 13.5239ZM16.3411 18.2791C16.0414 18.2791 15.7984 18.522 15.7984 18.8217L15.7972 20.6028H16.8819L16.8837 18.8217C16.8837 18.5819 16.7282 18.3785 16.5126 18.3067L16.4291 18.2862L16.3411 18.2791ZM7.03876 3.39535C6.05406 3.39535 5.25581 4.1936 5.25581 5.17829C5.25581 6.16299 6.05406 6.96124 7.03876 6.96124C8.02345 6.96124 8.8217 6.16299 8.8217 5.17829C8.8217 4.1936 8.02345 3.39535 7.03876 3.39535Z" fill="#333333"/>
</svg>