<svg width="24" height="24" viewBox="0 0 24 24" fill="none" xmlns="http://www.w3.org/2000/svg">
  <path d="M16.9612 2C18.7166 2 20.1395 3.42297 20.1395 5.17829C20.1395 6.66915 19.1131 7.92026 17.7283 8.26341C18.4026 8.36475 19.0591 8.60632 19.6541 8.9827C21.0502 9.86602 21.9209 11.3742 21.9949 13.0157L22 13.2403V15.1008C22 15.454 21.7375 15.7459 21.397 15.7921L21.3023 15.7984L20.0726 15.7981L19.5159 21.3717C19.4835 21.696 19.2325 21.9499 18.9179 21.9934L18.8217 22H15.1008C14.7749 22 14.4973 21.7755 14.4227 21.4668L14.4066 21.3717L13.8493 15.7981L12.6202 15.7984C12.267 15.7984 11.975 15.536 11.9289 15.1954L11.9225 15.1008V13.8605C11.9225 13.4752 12.2348 13.1628 12.6202 13.1628C12.9734 13.1628 13.2653 13.4253 13.3115 13.7658L13.3178 13.8605L13.3172 14.4028L14.4806 14.4031C14.8065 14.4031 15.0841 14.6276 15.1587 14.9363L15.1748 15.0314L15.7312 20.6047H18.1898L18.7476 15.0314C18.7801 14.7071 19.031 14.4532 19.3457 14.4097L19.4419 14.4031L20.6047 14.4028V13.2407C20.6039 12.061 20.0328 10.9591 19.0801 10.2777L18.908 10.1619C18.5203 9.9166 18.0965 9.75048 17.6593 9.66494L17.6589 12.6202C17.6589 13.0055 17.3466 13.3178 16.9612 13.3178C16.608 13.3178 16.3161 13.0554 16.2699 12.7148L16.2636 12.6202L16.2635 9.66387C15.9682 9.72123 15.6778 9.8156 15.3992 9.94742C15.0509 10.1122 14.635 9.96351 14.4702 9.61523C14.3053 9.26695 14.4541 8.85099 14.8023 8.68617C15.2472 8.47563 15.714 8.33417 16.1879 8.26089C14.8057 7.91577 13.7829 6.66647 13.7829 5.17829C13.7829 3.42297 15.2059 2 16.9612 2ZM7.65892 2C10.7842 2 13.3178 4.53358 13.3178 7.65892C13.3178 10.7842 10.7842 13.3178 7.65892 13.3178C4.53358 13.3178 2 10.7842 2 7.65892C2 4.53358 4.53358 2 7.65892 2ZM7.65892 3.39535C5.30421 3.39535 3.39535 5.30421 3.39535 7.65892C3.39535 10.0136 5.30421 11.9225 7.65892 11.9225C10.0136 11.9225 11.9225 10.0136 11.9225 7.65892C11.9225 5.30421 10.0136 3.39535 7.65892 3.39535ZM7.65892 4.83452C8.01212 4.83452 8.30402 5.09699 8.35022 5.43753L8.35659 5.5322L8.35628 6.96093L9.78481 6.96124C10.138 6.96124 10.4299 7.22371 10.4761 7.56424L10.4825 7.65892C10.4825 8.01212 10.22 8.30402 9.87948 8.35022L9.78481 8.35659H7.65892C7.30571 8.35659 7.01381 8.09412 6.96761 7.75359L6.96124 7.65892V5.5322C6.96124 5.14688 7.2736 4.83452 7.65892 4.83452ZM16.9612 3.39535C15.9765 3.39535 15.1783 4.1936 15.1783 5.17829C15.1783 6.16299 15.9765 6.96124 16.9612 6.96124C17.9459 6.96124 18.7442 6.16299 18.7442 5.17829C18.7442 4.1936 17.9459 3.39535 16.9612 3.39535Z" fill="#333333"/>
</svg>