<svg width="24" height="24" viewBox="0 0 24 24" fill="none" xmlns="http://www.w3.org/2000/svg">
  <path d="M7.97885 2C9.81313 2 11.3171 3.41311 11.3171 5.17874C11.3171 6.30111 10.7094 7.28104 9.79535 7.84608C12.2049 8.57194 13.9577 10.7058 13.9577 13.2389V15.0997C13.9577 16.1802 13.0448 17.0379 11.9397 17.0379L11.3163 17.0372L11.3171 20.0618C11.3171 21.0953 10.4819 21.925 9.44213 21.9952L9.29914 22H6.65855C5.55344 22 4.64059 21.1423 4.64059 20.0618L4.64 17.0372L4.01797 17.0379C2.96091 17.0379 2.07974 16.2531 2.00512 15.2393L2 15.0997V13.2389C2 10.7058 3.75281 8.57194 6.16218 7.84524C5.2483 7.281 4.64059 6.30109 4.64059 5.17874C4.64059 3.41311 6.14456 2 7.97885 2ZM7.97885 8.97443C5.43807 8.97443 3.39535 10.8937 3.39535 13.2389V15.0997C3.39535 15.3894 3.66472 15.6425 4.01797 15.6425H5.33826C5.72358 15.6425 6.03593 15.9549 6.03593 16.3402V20.0618C6.03593 20.3516 6.30531 20.6047 6.65855 20.6047H9.29914C9.65239 20.6047 9.92176 20.3516 9.92176 20.0618V16.3402C9.92176 15.9549 10.2341 15.6425 10.6194 15.6425H11.9397C12.293 15.6425 12.5623 15.3894 12.5623 15.0997V13.2389C12.5623 10.8937 10.5196 8.97443 7.97885 8.97443ZM21.8081 3.14738C22.0494 3.40134 22.062 3.78939 21.8524 4.05723L21.7828 4.13372L19.3767 6.4186L21.7828 8.70349C22.0622 8.96887 22.0735 9.41047 21.8081 9.68983C21.5669 9.94378 21.18 9.97623 20.9018 9.78064L20.8218 9.71512L18.3646 7.38047L15.9077 9.71512C15.6283 9.9805 15.1867 9.96918 14.9214 9.68983C14.6801 9.43587 14.6675 9.04782 14.8771 8.77998L14.9466 8.70349L17.3516 6.4186L14.9466 4.13372C14.6673 3.86834 14.656 3.42674 14.9214 3.14738C15.1626 2.89343 15.5495 2.86098 15.8277 3.05657L15.9077 3.12209L18.3646 5.45581L20.8218 3.12209C21.1012 2.85671 21.5428 2.86803 21.8081 3.14738ZM7.97885 3.39535C6.89642 3.39535 6.03593 4.20385 6.03593 5.17874C6.03593 6.15362 6.89642 6.96212 7.97885 6.96212C9.06127 6.96212 9.92176 6.15362 9.92176 5.17874C9.92176 4.20385 9.06127 3.39535 7.97885 3.39535Z" fill="#333333"/>
</svg>