<svg width="24" height="24" viewBox="0 0 24 24" fill="none" xmlns="http://www.w3.org/2000/svg">
  <path fill-rule="evenodd" clip-rule="evenodd" d="M5.13127 17.0107C4.50643 17.6356 4.50643 18.6486 5.13127 19.2735C5.75611 19.8983 6.76918 19.8983 7.39402 19.2735L12.0709 14.5966L16.7479 19.2735C17.3728 19.8984 18.3858 19.8984 19.0107 19.2735C19.6355 18.6487 19.6355 17.6356 19.0107 17.0108L14.3337 12.3338L19.2734 7.39409C19.8982 6.76925 19.8982 5.75619 19.2734 5.13135C18.6486 4.50651 17.6355 4.50651 17.0107 5.13135L12.0709 10.0711L7.13127 5.13139C6.50643 4.50656 5.49337 4.50656 4.86853 5.13139C4.24369 5.75623 4.24369 6.7693 4.86853 7.39414L9.8082 12.3338L5.13127 17.0107Z" fill="#333333"/>
</svg>