<svg width="24" height="24" viewBox="0 0 24 24" fill="none" xmlns="http://www.w3.org/2000/svg">
  <path d="M13.6061 3.00078C14.5491 3.04727 15.2992 3.81434 15.3328 4.73288L15.3321 8.43954C15.3321 8.82187 15.0336 9.13181 14.6655 9.13181C14.3308 9.13181 14.0537 8.87566 14.0061 8.54184L13.9988 8.43954L13.9996 4.84632C14.0091 4.63685 13.8551 4.44485 13.6525 4.39592L13.5745 4.38453L3.78967 4.38375C3.5489 4.39562 3.36729 4.56553 3.33811 4.79179L3.33449 4.87908L3.33375 19.1537C3.32419 19.3631 3.47807 19.555 3.68021 19.604L3.75805 19.6155L13.5429 19.6162C13.7839 19.6044 13.9658 19.4343 13.9952 19.2082L13.9988 19.1209V15.5605C13.9988 15.1781 14.2973 14.8682 14.6655 14.8682C15.0002 14.8682 15.2772 15.1243 15.3248 15.4582L15.3321 15.5605L15.3313 19.0882C15.3753 20.0522 14.6745 20.8651 13.7262 20.9866L13.5745 21L3.726 20.9992C2.78349 20.9521 2.03405 20.1851 2.00052 19.267L2.00202 4.91237C1.95733 3.94829 2.65795 3.13493 3.60632 3.01337L3.75805 3L13.6061 3.00078ZM18.3582 8.30167L18.4444 8.37006L21.7775 11.4855C22.045 11.7355 22.0693 12.1541 21.8504 12.4348L21.7775 12.5145L18.4444 15.6299C18.1707 15.8857 17.7492 15.8627 17.5029 15.5785C17.2813 15.3228 17.2771 14.9426 17.4779 14.6827L17.5525 14.6009L19.593 12.692L9.16569 12.6923C8.79753 12.6923 8.49907 12.3823 8.49907 12C8.49907 11.6524 8.74573 11.3647 9.06718 11.3152L9.16569 11.3077H19.593L17.5525 9.39914C17.3062 9.16894 17.2636 8.79138 17.4371 8.511L17.5029 8.42148C17.7246 8.16573 18.0882 8.1215 18.3582 8.30167Z" fill="#333333"/>
</svg>