<svg width="24" height="24" viewBox="0 0 24 24" fill="none" xmlns="http://www.w3.org/2000/svg">
  <path fill-rule="evenodd" clip-rule="evenodd" d="M2 5.6C2 4.71634 2.71634 4 3.6 4H20.4C21.2837 4 22 4.71634 22 5.6C22 6.48366 21.2837 7.2 20.4 7.2H3.6C2.71635 7.2 2 6.48366 2 5.6ZM2 12C2 11.1163 2.71634 10.4 3.6 10.4H20.4C21.2837 10.4 22 11.1163 22 12C22 12.8837 21.2837 13.6 20.4 13.6H3.6C2.71635 13.6 2 12.8837 2 12ZM3.6 16.8C2.71634 16.8 2 17.5163 2 18.4C2 19.2837 2.71635 20 3.6 20H20.4C21.2837 20 22 19.2837 22 18.4C22 17.5163 21.2837 16.8 20.4 16.8H3.6Z" fill="#333333"/>
</svg>