<svg width="24" height="24" viewBox="0 0 24 24" fill="none" xmlns="http://www.w3.org/2000/svg">
  <path d="M12 2C17.5228 2 22 6.47715 22 12C22 17.5228 17.5228 22 12 22C6.47715 22 2 17.5228 2 12C2 6.47715 6.47715 2 12 2ZM12 3.39535C7.24778 3.39535 3.39535 7.24778 3.39535 12C3.39535 14.5689 4.52104 16.8748 6.30605 18.4514C6.19868 18.3295 6.13437 18.1697 6.13437 17.9949C6.13416 15.3899 7.74243 13.0553 10.1765 12.1273C10.6235 11.9568 11.0814 11.8403 11.5417 11.7758C9.69106 11.378 8.30491 9.73202 8.30491 7.76227C8.30491 5.4932 10.1444 3.65375 12.4134 3.65375C14.6825 3.65375 16.522 5.4932 16.522 7.76227C16.522 9.73136 15.1367 11.3769 13.2876 11.7776C14.7278 11.9791 16.0871 12.6801 17.099 13.8144C17.3555 14.102 17.3304 14.543 17.0428 14.7995C16.7553 15.056 16.3143 15.0308 16.0578 14.7433C14.709 13.2314 12.5668 12.7093 10.6736 13.4311C8.78043 14.1529 7.52955 15.9687 7.52972 17.9948C7.52975 18.3801 7.21741 18.6925 6.8321 18.6925C6.69878 18.6925 6.57419 18.6551 6.46825 18.5903C7.96346 19.8476 9.89332 20.6047 12 20.6047C16.7522 20.6047 20.6047 16.7522 20.6047 12C20.6047 7.24778 16.7522 3.39535 12 3.39535ZM12.4134 5.0491C10.915 5.0491 9.70026 6.26383 9.70026 7.76227C9.70026 9.26072 10.915 10.4755 12.4134 10.4755C13.9119 10.4755 15.1266 9.26072 15.1266 7.76227C15.1266 6.26383 13.9119 5.0491 12.4134 5.0491Z" fill="#333333"/>
</svg>