<svg width="24" height="24" viewBox="0 0 24 24" fill="none" xmlns="http://www.w3.org/2000/svg">
  <path fill-rule="evenodd" clip-rule="evenodd" d="M20.9913 3.22628C20.9256 2.53816 20.3459 2 19.6406 2H6.39192L6.25779 2.00664C5.94715 2.03751 5.65507 2.17487 5.43242 2.39759L2.39753 5.43248L2.30739 5.53198C2.10953 5.77339 2 6.07701 2 6.39192V19.6406L2.00621 19.7712C2.07197 20.4594 2.65162 20.9975 3.35697 20.9975H9.04242L9.12836 20.9912C9.40879 20.9497 9.62397 20.708 9.62397 20.416L9.61767 20.33C9.57613 20.0496 9.3344 19.8344 9.04242 19.8344L5.48856 19.834L5.48934 12.6619L5.49626 12.6103C5.51883 12.5283 5.59397 12.468 5.68319 12.468H9.08521L9.17115 12.4617C9.45159 12.4202 9.66677 12.1785 9.66677 11.8865C9.66677 11.5653 9.4064 11.3049 9.08521 11.3049H5.68319L5.55251 11.3111C4.86439 11.3769 4.32623 11.9565 4.32623 12.6619L4.32598 19.8344H3.35697L3.30543 19.8275C3.22338 19.8049 3.16311 19.7298 3.16311 19.6406V6.39192L3.16976 6.3417C3.1785 6.30921 3.19566 6.27923 3.21991 6.25499L5.87664 3.59759L5.87705 7.23401C5.87705 7.98344 6.48458 8.59098 7.23401 8.59098H15.7635L15.8942 8.58476C16.5823 8.51901 17.1205 7.93936 17.1205 7.23401L17.1198 3.16299L19.6406 3.16311L19.6921 3.17004C19.7741 3.19261 19.8344 3.26775 19.8344 3.35697V8.66346L19.8407 8.7494C19.8822 9.02983 20.124 9.24501 20.416 9.24501C20.7371 9.24501 20.9975 8.98464 20.9975 8.66346V3.35697L20.9913 3.22628ZM9.72469 16.5389C9.72469 16.2177 9.46432 15.9574 9.14314 15.9574H7.23401L7.14807 15.9637C6.86764 16.0052 6.65245 16.2469 6.65245 16.5389C6.65245 16.8601 6.91283 17.1205 7.23401 17.1205H9.14314L9.22907 17.1142C9.50951 17.0726 9.72469 16.8309 9.72469 16.5389ZM9.72395 14.2127C9.72395 13.8915 9.46358 13.6311 9.14239 13.6311H7.23401L7.14807 13.6374C6.86764 13.679 6.65245 13.9207 6.65245 14.2127C6.65245 14.5339 6.91283 14.7942 7.23401 14.7942H9.14239L9.22833 14.7879C9.50876 14.7464 9.72395 14.5047 9.72395 14.2127ZM7.03963 3.16299H15.9568L15.9574 7.23401C15.9574 7.34107 15.8706 7.42786 15.7635 7.42786H7.23401L7.18248 7.42094L7.13617 7.4014C7.07873 7.36775 7.04016 7.30539 7.04016 7.23401L7.03963 3.16299ZM16.1924 9.4454C13.0196 9.4454 10.3867 10.5392 10.3847 12.2344L10.3842 19.209L10.3899 19.3452C10.5269 20.9639 13.1035 21.9999 16.1918 21.9999C19.3659 21.9999 21.9995 20.9056 21.9995 19.209L21.9999 12.2562L22 12.2363C22 10.54 19.3663 9.4454 16.1924 9.4454ZM11.675 18.6085C12.7454 19.2298 14.3806 19.5861 16.1918 19.5861C18.0036 19.5861 19.6392 19.2295 20.7095 18.608L20.7088 19.209L20.7027 19.2746C20.5799 19.9353 18.6385 20.7092 16.1918 20.7092C13.6635 20.7092 11.6748 19.8828 11.6748 19.209L11.675 18.6085ZM11.675 16.1947C12.7454 16.816 14.3806 17.1723 16.1918 17.1723C18.0036 17.1723 19.6392 16.8158 20.7095 16.1942L20.7088 16.7952L20.7027 16.8608C20.5799 17.5215 18.6385 18.2954 16.1918 18.2954C13.6635 18.2954 11.6748 17.469 11.6748 16.7952L11.675 16.1947ZM16.1924 15.0272C18.0035 15.0272 19.6387 14.6708 20.7091 14.0496L20.7088 14.3814L20.7027 14.447C20.5799 15.1077 18.6385 15.8816 16.1918 15.8816C13.6635 15.8816 11.6748 15.0552 11.6748 14.3814L11.6747 14.049C12.745 14.6706 14.3807 15.0272 16.1924 15.0272ZM16.1924 10.736C18.7135 10.736 20.6984 11.5581 20.7093 12.2307L20.7084 12.2454L20.7094 12.2363C20.7094 12.91 18.7205 13.7366 16.1924 13.7366C13.6642 13.7366 11.6754 12.91 11.6754 12.2363C11.6754 11.5627 13.6642 10.736 16.1924 10.736Z" fill="#333333"/>
</svg>