<svg width="24" height="24" viewBox="0 0 24 24" fill="none" xmlns="http://www.w3.org/2000/svg">
  <path d="M5.17829 22C4.10798 22 3.24031 21.1323 3.24031 20.062L3.23997 12.0753C2.54839 12.035 2 11.4614 2 10.7597V8.89922C2 7.82891 2.86767 6.96124 3.93798 6.96124L7.38401 6.96196C6.02116 5.91239 5.10078 4.37188 5.10078 2.69767C5.10078 2.31236 5.41313 2 5.79845 2C8.72042 2 11.5077 4.14518 12.0006 6.8212C12.4923 4.14518 15.2796 2 18.2015 2C18.5869 2 18.8992 2.31236 18.8992 2.69767C18.8992 4.37188 17.9788 5.91239 16.616 6.96196L20.062 6.96124C21.1323 6.96124 22 7.82891 22 8.89922V10.7597C22 11.4875 21.41 12.0775 20.6822 12.0775L20.759 12.073L20.7597 20.062C20.7597 21.0814 19.9727 21.9169 18.9732 21.9942L18.8217 22H5.17829ZM9.441 12.077L4.63535 12.0772L4.63566 20.062C4.63566 20.3317 4.83245 20.5555 5.09028 20.5975L5.17829 20.6047L9.441 20.604V12.077ZM13.162 12.077H10.837L10.8372 20.6047H13.1628L13.162 12.077ZM19.3637 12.0772L14.558 12.077V20.604L18.8217 20.6047C19.0914 20.6047 19.3152 20.4079 19.3572 20.15L19.3643 20.062L19.3637 12.0772ZM9.441 8.356L3.93798 8.35659C3.6383 8.35659 3.39535 8.59954 3.39535 8.89922V10.6819L9.441 10.681V8.356ZM13.1628 8.35628H10.8372L10.837 10.681H13.162L13.1628 8.35628ZM20.062 8.35659L14.558 8.356V10.681L20.6047 10.6819V8.89922C20.6047 8.6295 20.4079 8.40575 20.15 8.36369L20.062 8.35659ZM17.4108 3.46313L17.3535 3.47239C15.4748 3.81203 13.8141 5.23276 13.4109 6.89346C15.3128 6.57367 17.0034 5.14086 17.4108 3.46313ZM6.58963 3.46245L6.63568 3.63513C7.11297 5.23799 8.75259 6.58468 10.5897 6.89431C10.1818 5.21602 8.49165 3.78342 6.58963 3.46245Z" fill="#333333"/>
</svg>