<svg width="24" height="24" viewBox="0 0 24 24" fill="none" xmlns="http://www.w3.org/2000/svg">
  <path d="M17.478 21.582V17.624H13.52C13.3211 17.624 13.1303 17.545 12.9896 17.4043C12.849 17.2637 12.77 17.0729 12.77 16.874C12.77 16.6751 12.849 16.4843 12.9896 16.3437C13.1303 16.203 13.3211 16.124 13.52 16.124H17.478V12.166C17.478 11.9671 17.557 11.7763 17.6976 11.6357C17.8383 11.495 18.0291 11.416 18.228 11.416C18.427 11.416 18.6179 11.495 18.7587 11.6356C18.8995 11.7762 18.9787 11.967 18.979 12.166V16.124H22.9359C23.0345 16.1239 23.1322 16.1432 23.2233 16.1808C23.3144 16.2184 23.3972 16.2737 23.4669 16.3433C23.5367 16.413 23.592 16.4957 23.6298 16.5868C23.6675 16.6778 23.687 16.7754 23.687 16.874C23.687 16.9726 23.6675 17.0702 23.6298 17.1613C23.592 17.2523 23.5367 17.335 23.4669 17.4047C23.3972 17.4744 23.3144 17.5296 23.2233 17.5672C23.1322 17.6048 23.0345 17.6241 22.9359 17.624H18.979V21.582C18.9787 21.781 18.8995 21.9718 18.7587 22.1124C18.6179 22.253 18.427 22.332 18.228 22.332C18.0291 22.332 17.8383 22.253 17.6976 22.1123C17.557 21.9717 17.478 21.7809 17.478 21.582ZM1.75098 22.332C1.6524 22.3321 1.55473 22.3128 1.46362 22.2752C1.37251 22.2376 1.28972 22.1823 1.21997 22.1127C1.15022 22.043 1.09488 21.9603 1.05713 21.8692C1.01938 21.7782 1 21.6806 1 21.582V19.228C1.00185 17.7143 1.38498 16.2255 2.11401 14.899C2.84382 13.573 3.89622 12.4524 5.17395 11.641C5.75892 11.2702 6.38472 10.9683 7.03894 10.741C6.44247 10.2873 5.95898 9.70175 5.6261 9.03027C5.29322 8.35879 5.12001 7.61946 5.12 6.87C5.12158 5.57888 5.63514 4.34112 6.5481 3.42816C7.46105 2.5152 8.69887 2.00159 9.98999 2C11.281 2.00159 12.5187 2.51524 13.4315 3.42822C14.3443 4.34121 14.8577 5.57897 14.859 6.87C14.8589 7.61895 14.6858 8.35777 14.3533 9.02887C14.0208 9.69997 13.5379 10.2852 12.942 10.739C13.2398 10.8422 13.5318 10.9609 13.817 11.095C13.9065 11.1367 13.9869 11.1958 14.0535 11.2688C14.1201 11.3417 14.1716 11.4271 14.2051 11.5201C14.2385 11.613 14.2532 11.7117 14.2484 11.8104C14.2436 11.909 14.2194 12.0058 14.177 12.095C14.1351 12.1844 14.076 12.2647 14.0031 12.3313C13.9301 12.3978 13.8446 12.4492 13.7517 12.4827C13.6588 12.5161 13.5602 12.5309 13.4615 12.5262C13.3629 12.5214 13.2663 12.4972 13.177 12.455C12.0357 11.9184 10.7777 11.6777 9.51892 11.755C8.26034 11.8352 7.04223 12.231 5.97693 12.906C4.91277 13.5825 4.03594 14.5158 3.427 15.62C2.81975 16.7253 2.50062 17.9658 2.49902 19.227V20.827H13.5189C13.7179 20.827 13.9089 20.906 14.0497 21.0466C14.1905 21.1872 14.2698 21.378 14.27 21.577C14.2698 21.776 14.1905 21.9668 14.0497 22.1074C13.9089 22.248 13.7179 22.327 13.5189 22.327L1.75098 22.332ZM6.62 6.87C6.62105 7.76345 6.97639 8.62 7.60815 9.25177C8.23992 9.88354 9.09654 10.2389 9.98999 10.24C10.8834 10.2389 11.7399 9.88354 12.3717 9.25177C13.0035 8.62 13.3589 7.76345 13.36 6.87C13.3592 5.97646 13.0039 5.11974 12.3721 4.48792C11.7402 3.85609 10.8835 3.50079 9.98999 3.5C9.09628 3.50053 8.23934 3.85569 7.6073 4.48755C6.97526 5.1194 6.61981 5.97629 6.61902 6.87H6.62Z" fill="#333333"/>
</svg>