<svg width="24" height="24" viewBox="0 0 24 24" fill="none" xmlns="http://www.w3.org/2000/svg">
  <path d="M8.24203 4.66282L8.35672 4.74859L9.9815 6.10217C10.2775 6.34879 10.3176 6.7887 10.071 7.08474C9.84677 7.35386 9.46282 7.41143 9.17245 7.23438L9.0884 7.17421L7.57194 5.9106L7.30015 8.09475C7.28147 8.24436 7.215 8.38284 7.11216 8.49041L7.02839 8.56498C6.01971 9.32694 5.27325 10.384 4.89262 11.5895C4.81116 11.8475 4.58937 12.0321 4.32731 12.0699L4.22734 12.0771L3.39531 12.0769V15.6424L4.75653 15.643C4.96866 15.643 5.16719 15.7393 5.29845 15.9012L5.35824 15.9875C6.60628 18.1143 8.90266 19.4044 11.3797 19.3639C15.1173 19.3639 18.1237 16.6078 18.1237 13.2391C18.124 13.0554 18.1149 12.8719 18.0966 12.6892C18.0582 12.3058 18.3379 11.9639 18.7213 11.9255C19.1047 11.8872 19.4466 12.1669 19.485 12.5503C19.508 12.7797 19.5193 13.0101 19.5191 13.2399C19.5191 15.6045 18.3415 17.7067 16.5058 19.083L17.0177 21.1327C17.1111 21.5065 16.8837 21.8853 16.5099 21.9787C16.1673 22.0643 15.8205 21.8804 15.6931 21.5612L15.664 21.4709L15.26 19.8532C14.1079 20.4313 12.7893 20.7591 11.3911 20.7591C10.015 20.7817 8.68257 20.46 7.4994 19.8532L7.09537 21.4709C7.00198 21.8447 6.62323 22.0721 6.24942 21.9787C5.90676 21.8931 5.68718 21.5677 5.7249 21.2261L5.74167 21.1327L6.25663 19.0687C5.56462 18.54 4.95297 17.8989 4.45112 17.1619L4.36924 17.0377L2.69766 17.0383C2.34446 17.0383 2.05257 16.7758 2.00637 16.4353L2 16.3406V11.3794C2 11.0262 2.26246 10.7343 2.60299 10.6881L2.69766 10.6818L3.73577 10.6816L3.77289 10.5868C4.20227 9.53821 4.86435 8.60062 5.7089 7.84519L5.95059 7.638L6.20566 5.59878C6.25923 5.16348 6.52527 4.78648 6.91036 4.58848L7.02937 4.53457C7.43326 4.3752 7.88648 4.42605 8.24203 4.66282ZM8.27895 9.75155C8.83236 9.75155 9.28158 10.1976 9.28664 10.7499C9.28666 10.753 9.28668 10.7561 9.28668 10.7593C9.28668 11.2787 8.89366 11.7064 8.38875 11.7611L8.27895 11.767C7.7224 11.767 7.27122 11.3158 7.27122 10.7593L7.27149 10.7495L7.27714 10.6495C7.33185 10.1446 7.7595 9.75155 8.27895 9.75155ZM14.486 2.03673C15.3877 1.89039 16.3048 2.18648 16.9507 2.83245L17.0489 2.93021L17.1481 2.83248C17.751 2.22955 18.5901 1.93142 19.4324 2.01334L19.6129 2.03673C20.5146 2.18308 21.291 2.75401 21.6995 3.57115C22.2464 4.66543 22.0319 5.98694 21.1772 6.8415L17.5531 10.6219C17.2784 10.9084 16.8205 10.9084 16.5458 10.6219L12.9312 6.85119C12.0685 5.98563 11.8544 4.66616 12.3994 3.57113C12.8079 2.75401 13.5843 2.18308 14.486 2.03673ZM15.9641 3.81905C15.6353 3.49024 15.1685 3.33954 14.7095 3.41403C14.2506 3.48851 13.8554 3.77911 13.648 4.19396C13.3703 4.75188 13.4795 5.4248 13.9289 5.87591L17.0489 9.13098L20.1802 5.8654C20.5868 5.45885 20.7111 4.85427 20.5088 4.32548L20.4514 4.19502C20.2435 3.77911 19.8483 3.48851 19.3893 3.41403C18.9304 3.33954 18.4636 3.49024 18.1348 3.81908L17.5428 4.41112C17.2703 4.68357 16.8286 4.68357 16.5561 4.41112L15.9641 3.81905Z" fill="#333333"/>
</svg>