<svg width="24" height="24" viewBox="0 0 24 24" fill="none" xmlns="http://www.w3.org/2000/svg">
  <path d="M10.1395 2C11.9831 2 13.5199 3.31334 13.8653 5.05543L13.8735 5.10047L16.3411 5.10078C17.3649 5.10078 18.2032 5.89463 18.2742 6.90036L18.2791 7.03876V8.89922C18.2791 9.28454 17.9667 9.5969 17.5814 9.5969C17.2282 9.5969 16.9363 9.33443 16.8901 8.9939L16.8837 8.89922V7.03876C16.8837 6.76904 16.6869 6.54528 16.4291 6.50323L16.3411 6.49612H13.2403C12.855 6.49612 12.5426 6.18376 12.5426 5.79845C12.5426 4.47125 11.4667 3.39535 10.1395 3.39535C8.81234 3.39535 7.73643 4.47125 7.73643 5.79845C7.73643 6.15166 7.47397 6.44356 7.13343 6.48976L7.03876 6.49612H3.93798C3.66826 6.49612 3.44451 6.69291 3.40245 6.95074L3.39535 7.03876V20.062C3.39535 20.3317 3.59214 20.5555 3.84997 20.5975L3.93798 20.6047H10.1395C10.5248 20.6047 10.8372 20.917 10.8372 21.3023C10.8372 21.6555 10.5747 21.9474 10.2342 21.9936L10.1395 22H3.93798C2.9142 22 2.07583 21.2061 2.00487 20.2004L2 20.062V7.03876C2 6.01498 2.79386 5.17661 3.79958 5.10564L3.93798 5.10078L6.40465 5.10047L6.41372 5.05543C6.74728 3.37341 8.19142 2.09108 9.94995 2.00465L10.1395 2ZM16.3411 10.6822C19.4664 10.6822 22 13.2158 22 16.3411C22 19.4664 19.4664 22 16.3411 22C13.2158 22 10.6822 19.4664 10.6822 16.3411C10.6822 13.2158 13.2158 10.6822 16.3411 10.6822ZM16.3411 12.0775C13.9864 12.0775 12.0775 13.9864 12.0775 16.3411C12.0775 18.6958 13.9864 20.6047 16.3411 20.6047C18.6958 20.6047 20.6047 18.6958 20.6047 16.3411C20.6047 13.9864 18.6958 12.0775 16.3411 12.0775ZM18.9707 14.34C19.2509 14.5502 19.3281 14.9307 19.1661 15.2297L19.1103 15.3168L16.7077 18.5208C16.4782 18.826 16.1277 19.0167 15.7468 19.0437C15.4135 19.0673 15.0856 18.9634 14.8276 18.7561L14.7216 18.661L13.4812 17.4207C13.2088 17.1482 13.2088 16.7065 13.4812 16.434C13.7289 16.1863 14.1165 16.1638 14.3897 16.3665L14.4679 16.434L15.6456 17.6112L17.994 14.4796C18.2251 14.1714 18.6624 14.1089 18.9707 14.34ZM8.89922 16.2636C9.28454 16.2636 9.5969 16.5759 9.5969 16.9612C9.5969 17.3144 9.33443 17.6063 8.9939 17.6525L8.89922 17.6589H6.4186C6.03329 17.6589 5.72093 17.3466 5.72093 16.9612C5.72093 16.608 5.9834 16.3161 6.32393 16.2699L6.4186 16.2636H8.89922ZM8.89922 13.1628C9.28454 13.1628 9.5969 13.4752 9.5969 13.8605C9.5969 14.2137 9.33443 14.5056 8.9939 14.5518L8.89922 14.5581H6.4186C6.03329 14.5581 5.72093 14.2458 5.72093 13.8605C5.72093 13.5073 5.9834 13.2154 6.32393 13.1692L6.4186 13.1628H8.89922ZM10.7597 10.062C11.145 10.062 11.4574 10.3744 11.4574 10.7597C11.4574 11.1129 11.1949 11.4048 10.8544 11.451L10.7597 11.4574H6.4186C6.03329 11.4574 5.72093 11.145 5.72093 10.7597C5.72093 10.4065 5.9834 10.1146 6.32393 10.0684L6.4186 10.062H10.7597ZM10.1395 4.48062L10.2493 4.48653C10.7543 4.54125 11.1473 4.96891 11.1473 5.48837C11.1473 6.04494 10.6961 6.49612 10.1395 6.49612C9.58297 6.49612 9.13178 6.04494 9.13178 5.48837C9.13178 4.96891 9.52482 4.54125 10.0297 4.48653L10.1395 4.48062Z" fill="#333333"/>
</svg>