<svg width="24" height="24" viewBox="0 0 24 24" fill="none" xmlns="http://www.w3.org/2000/svg">
  <path d="M17.5102 2C18.5922 2 19.4776 2.89699 19.5467 4.03098L19.551 4.17391L19.5513 5.4419C20.2331 5.75935 20.7206 6.46216 20.7712 7.29185L20.7755 7.43478L20.7759 10.0072C21.4965 10.3427 22 11.1087 22 12V15.913C22 16.8043 21.4965 17.5703 20.7759 17.9059L20.7755 19.8261C20.7755 20.9787 19.9334 21.9218 18.8689 21.9954L18.7347 22H4.65306C3.23834 22 2.08225 20.8205 2.0042 19.3343L2 19.1739V4.82609C2 3.3191 3.10731 2.08761 4.50251 2.00447L4.65306 2H17.5102ZM17.5102 3.73913H4.65306C4.12473 3.73913 3.69018 4.16685 3.63792 4.71495L3.63265 4.82609V19.1739C3.63265 19.7367 4.03418 20.1996 4.54873 20.2553L4.65306 20.2609H18.7347C18.9351 20.2609 19.1017 20.1071 19.1363 19.9042L19.1429 19.8261V18.086L16.898 18.087C14.8213 18.087 13.126 16.3481 13.0252 14.1627L13.0204 13.9565C13.0204 11.6753 14.7564 9.82609 16.898 9.82609L19.1429 9.826V7.43478C19.1429 7.22134 18.9985 7.04382 18.8081 7.007L18.7347 7L6.83426 6.99904C5.98349 7.04166 5.18307 6.56886 4.7664 5.77758C4.54584 5.35872 4.6858 4.82872 5.07901 4.59377C5.44413 4.37561 5.89923 4.48858 6.13897 4.84119L6.19034 4.92677C6.29035 5.11669 6.47095 5.23973 6.69657 5.25905L6.79592 5.26087L17.9181 5.26L17.9184 4.17391C17.9184 3.96047 17.774 3.78295 17.5836 3.74614L17.5102 3.73913ZM19.9592 11.5652H16.898C15.6581 11.5652 14.6531 12.6358 14.6531 13.9565C14.6531 15.2772 15.6581 16.3478 16.898 16.3478H19.9592C20.1846 16.3478 20.3673 16.1532 20.3673 15.913V12C20.3673 11.7599 20.1846 11.5652 19.9592 11.5652ZM16.898 12.7609L17.0061 12.7663C17.5753 12.8243 18.0204 13.335 18.0204 13.9565C18.0204 14.6169 17.5179 15.1522 16.898 15.1522C16.278 15.1522 15.7755 14.6169 15.7755 13.9565C15.7755 13.335 16.2207 12.8243 16.7899 12.7663L16.898 12.7609Z" fill="#333333"/>
</svg>