<svg width="156" height="36" viewBox="0 0 156 36" fill="none" xmlns="http://www.w3.org/2000/svg">
  <path fill-rule="evenodd" clip-rule="evenodd" d="M59.5804 14.5896C63.1484 14.5896 65.5613 16.9229 65.5613 21.6033C65.5613 26.51 62.6075 29.3666 57.7235 29.3666C56.2758 29.3666 55.15 29.0271 55.15 29.0271L55.1059 29.0413C55.1353 29.6066 55.15 30.215 55.15 30.851V34.7116C55.15 35.4327 54.6967 35.871 53.8044 35.871C52.9124 35.871 52.4738 35.4327 52.4738 34.7116V15.8058C52.4738 15.1268 52.8686 14.7311 53.585 14.7311C54.3165 14.7311 54.6672 15.1126 54.7842 15.8624L54.9159 16.8379H54.9596C54.9596 16.8379 56.3927 14.5896 59.5804 14.5896ZM120.239 14.5896C123.63 14.5896 126 16.8661 126 20.6558C126 21.7165 125.473 22.2537 124.464 22.2537H116.012V22.3527C116.085 25.4213 118.001 27.2313 120.823 27.2313C123.06 27.2313 123.85 26.5099 124.523 26.5099C125.064 26.5099 125.385 26.8918 125.385 27.3444C125.385 27.6696 125.269 27.9101 125.005 28.1646C124.508 28.6453 122.87 29.3665 120.385 29.3665C116.1 29.3665 113.321 26.6799 113.321 22.4377C113.321 17.4177 116.26 14.5896 120.239 14.5896ZM82.4694 14.5896C86.5342 14.5896 89.4446 17.4035 89.4446 21.7165C89.4446 26.5242 86.5196 29.3666 82.1036 29.3666C78.0384 29.3666 75.1137 26.5384 75.1137 22.2255C75.1137 17.4177 78.0531 14.5896 82.4694 14.5896ZM44.4292 14.5896C47.8216 14.5896 50.1908 16.8661 50.1908 20.6558C50.1908 21.7165 49.6643 22.2537 48.6555 22.2537H40.2033V22.3527C40.2765 25.4213 42.192 27.2313 45.0142 27.2313C47.2517 27.2313 48.0414 26.5099 48.7139 26.5099C49.255 26.5099 49.5765 26.8918 49.5765 27.3444C49.5765 27.6696 49.4595 27.9101 49.1963 28.1646C48.6993 28.6453 47.0614 29.3665 44.5755 29.3665C40.2911 29.3665 37.5125 26.6799 37.5125 22.4377C37.5125 17.4177 40.4519 14.5896 44.4292 14.5896ZM25.4366 14.7591C26.3433 14.7591 26.7672 15.1834 26.7672 15.9186V28.1362C26.7672 28.829 26.3724 29.2249 25.6558 29.2249C24.9246 29.2249 24.5738 28.8432 24.4569 28.0796L24.3253 27.1037H24.2815C24.2815 27.1037 22.8774 29.3524 19.6604 29.3524C16.3556 29.3524 14.2647 27.3444 14.2647 23.5406V15.9186C14.2647 15.1834 14.6886 14.7591 15.6099 14.7591C16.5019 14.7591 16.9406 15.1834 16.9406 15.9186V23.1588C16.9406 26.0009 18.1982 27.2171 20.2747 27.2171C22.8191 27.2171 24.0912 24.785 24.0912 24.785V15.9186C24.0912 15.1834 24.53 14.7591 25.4366 14.7591ZM108.597 8.12744C109.489 8.12744 109.942 8.56579 109.942 9.2871V25.0678C109.942 26.6657 110.41 27.1324 111.171 27.1324C111.521 27.1324 111.756 27.0758 112.004 27.0758C112.458 27.0758 112.779 27.4009 112.779 27.8818C112.779 28.2636 112.633 28.5037 112.458 28.6735C112.165 28.9562 111.624 29.2392 110.542 29.2392C108.436 29.2392 107.266 28.1079 107.266 25.7747V9.2871C107.266 8.56579 107.705 8.12744 108.597 8.12744ZM102.702 14.7593C103.594 14.7593 104.048 15.1834 104.048 15.9187V28.0232C104.048 28.7584 103.594 29.1826 102.702 29.1826C101.81 29.1826 101.371 28.7584 101.371 28.0232V15.9187C101.371 15.1834 101.81 14.7593 102.702 14.7593ZM97.328 8C98.4392 8 99.2436 8.31135 99.5652 8.62244C99.7991 8.84859 99.9017 9.10314 99.9017 9.45656C99.9017 10.0506 99.5068 10.404 99.0097 10.404C98.527 10.404 98.1906 10.0787 97.2109 10.0787C95.7341 10.0787 94.8566 10.9696 94.8566 13.1188V14.8442H97.4449C98.0152 14.8442 98.4101 15.226 98.4101 15.8763C98.4101 16.5268 98.0152 16.8945 97.4449 16.8945H94.8566V28.0232C94.8566 28.7584 94.418 29.1825 93.526 29.1825C92.6338 29.1825 92.1806 28.7584 92.1806 28.0232V16.8945H90.5722C89.987 16.8945 89.6069 16.5268 89.6069 15.8763C89.6069 15.226 89.987 14.8442 90.5722 14.8442H92.1806V13.3453C92.1806 9.92332 94.1691 8 97.328 8ZM73.9131 14.5897C74.9217 14.5897 75.4776 15.0846 75.4776 15.9613C75.4776 16.9087 74.9218 17.4179 74.3518 17.4179C73.9422 17.4179 73.7521 17.2763 73.3427 17.2763C72.3334 17.2763 71.2955 18.1954 70.418 19.8358V28.0232C70.418 28.7584 69.9646 29.1826 69.0726 29.1826C68.1807 29.1826 67.7421 28.7584 67.7421 28.0232V15.8058C67.7421 15.1269 68.1366 14.7311 68.8532 14.7311C69.5845 14.7311 69.9355 15.1127 70.0524 15.8905L70.2278 17.1914H70.2716C71.076 15.6786 72.3919 14.5897 73.9131 14.5897ZM35.8901 14.5897C36.8989 14.5897 37.4548 15.0846 37.4548 15.9613C37.4548 16.9087 36.899 17.4179 36.3287 17.4179C35.9193 17.4179 35.7291 17.2763 35.3198 17.2763C34.3107 17.2763 33.2727 18.1954 32.3952 19.8358V28.0232C32.3952 28.7584 31.9419 29.1826 31.0499 29.1826C30.1579 29.1826 29.719 28.7584 29.719 28.0232V15.8058C29.719 15.1269 30.1139 14.7311 30.8305 14.7311C31.5617 14.7311 31.9128 15.1127 32.0297 15.8905L32.2051 17.1914H32.2489C33.0533 15.6786 34.3692 14.5897 35.8901 14.5897ZM5.32262 9.61201C10.1922 9.61201 12.4588 11.8039 12.4588 15.2403C12.4588 18.9306 9.82672 21.4619 4.97183 21.4619H2.7346V28.009C2.7346 28.7584 2.29597 29.1826 1.35996 29.1826C0.438633 29.1826 0 28.7584 0 28.009V10.8848C0 10.0788 0.468005 9.61201 1.31618 9.61201H5.32262ZM58.9666 16.7246C56.4221 16.7246 55.15 19.157 55.15 19.157V26.7362C55.15 26.7362 56.1442 27.316 58.0453 27.316C60.8818 27.316 62.8124 25.4352 62.8124 21.8579C62.8124 18.1815 61.3061 16.7246 58.9666 16.7246ZM82.2643 16.6823C79.7491 16.6823 77.863 18.5064 77.863 21.9426C77.863 25.3506 79.837 27.2595 82.323 27.2595C84.838 27.2595 86.71 25.4353 86.71 21.9994C86.71 18.6198 84.7209 16.6823 82.2643 16.6823ZM119.916 16.5834C118.147 16.5834 116.597 17.7996 116.129 20.4013H123.484C123.206 17.8138 122.008 16.5834 119.916 16.5834ZM44.1076 16.5834C42.3383 16.5834 40.7883 17.7996 40.3203 20.4013H47.6757C47.3977 17.8138 46.1987 16.5834 44.1076 16.5834ZM5.14722 11.7757H2.7346V19.3125H5.17659C8.10101 19.3125 9.63663 17.842 9.63663 15.4803C9.63663 13.1189 8.26199 11.7757 5.14722 11.7757ZM102.731 8.70695C103.755 8.70695 104.516 9.45667 104.516 10.4039C104.516 11.4082 103.755 12.1434 102.673 12.1434C101.649 12.1434 100.889 11.4082 100.889 10.4607C100.889 9.45666 101.649 8.70695 102.731 8.70695Z" fill="#333333"/>
  <path fill-rule="evenodd" clip-rule="evenodd" d="M143.629 0.000763751C143.76 0.00229126 143.934 0.00611002 144.061 0.01222C150.703 0.290022 156 5.6223 156 12.1622C156 15.8135 153.43 19.573 149.94 23.8641C149.591 24.2929 148.922 24.2943 148.573 23.866L145.709 20.3512C145.336 19.8945 145.541 19.2249 146.103 19.0233C148.968 17.9963 151.012 15.3144 151.012 12.166C151.012 7.9604 147.365 4.58496 142.986 4.87688C141.167 4.99826 139.523 5.76459 138.289 6.93799C136.958 8.20289 136.103 9.94086 136.022 11.8537C135.942 13.7035 136.571 15.4075 137.663 16.7341L137.658 16.7374L146.233 27.2585C146.488 27.5708 146.484 28.0132 146.226 28.3225C145.875 28.7442 145.518 29.1716 145.161 29.6048C144.613 30.2688 144.074 30.5862 143.526 30.5719H143.501C142.953 30.5865 142.41 30.2712 141.866 29.6048C134.574 20.6815 131.028 17.3521 131.028 12.1622C131.028 5.6223 136.325 0.290022 142.966 0.01222C143.136 0.00407334 143.387 0 143.514 0L143.629 0.000763751ZM143.514 8.92804C145.349 8.92804 146.836 10.3776 146.836 12.1661C146.836 13.9543 145.349 15.4041 143.514 15.4041C141.679 15.4041 140.191 13.9543 140.191 12.1661C140.191 10.3776 141.679 8.92804 143.514 8.92804Z" fill="#2BA8A6"/>
</svg>